REM DIRINDEX 1\2,1\3,1\4,1\5
REM DIRNAME folder01,folder02,folder03,folder04,folder05
TITLE ""
FILE "1800_164.mp3" MP3
  TRACK 01 AUDIO
    TITLE "2:cjc044_5379"
    INDEX 01 00:00:00
  TRACK 02 AUDIO
    TITLE "0:"
    INDEX 01 00:01:05
  TRACK 03 AUDIO
    TITLE "3:cjc044_5380"
    INDEX 01 00:01:54
  TRACK 04 AUDIO
    TITLE "0:"
    INDEX 01 00:02:65
  TRACK 05 AUDIO
    TITLE "4:cjc044_5381"
    INDEX 01 00:03:37
  TRACK 06 AUDIO
    TITLE "0:"
    INDEX 01 00:04:56
  TRACK 07 AUDIO
    TITLE "2:cjc044_5382"
    INDEX 01 00:06:33
  TRACK 08 AUDIO
    TITLE "0:"
    INDEX 01 00:07:62
  TRACK 09 AUDIO
    TITLE "3:cjc044_5383"
    INDEX 01 00:08:36
  TRACK 10 AUDIO
    TITLE "0:"
    INDEX 01 00:09:51
  TRACK 11 AUDIO
    TITLE "4:cjc044_5384"
    INDEX 01 00:10:23
  TRACK 12 AUDIO
    TITLE "0:"
    INDEX 01 00:11:50
  TRACK 13 AUDIO
    TITLE "2:cjc044_5385"
    INDEX 01 00:13:30
  TRACK 14 AUDIO
    TITLE "0:"
    INDEX 01 00:14:66
  TRACK 15 AUDIO
    TITLE "3:cjc044_5386"
    INDEX 01 00:15:40
  TRACK 16 AUDIO
    TITLE "0:"
    INDEX 01 00:16:63
  TRACK 17 AUDIO
    TITLE "4:cjc044_5387"
    INDEX 01 00:17:35
  TRACK 18 AUDIO
    TITLE "0:"
    INDEX 01 00:18:74
  TRACK 19 AUDIO
    TITLE "2:cjc044_5388"
    INDEX 01 00:20:47
  TRACK 20 AUDIO
    TITLE "0:"
    INDEX 01 00:21:68
  TRACK 21 AUDIO
    TITLE "3:cjc044_5389"
    INDEX 01 00:22:42
  TRACK 22 AUDIO
    TITLE "0:"
    INDEX 01 00:23:51
  TRACK 23 AUDIO
    TITLE "4:cjc044_5390"
    INDEX 01 00:24:24
  TRACK 24 AUDIO
    TITLE "0:"
    INDEX 01 00:25:45
  TRACK 25 AUDIO
    TITLE "2:cjc044_5391"
    INDEX 01 00:27:22
  TRACK 26 AUDIO
    TITLE "0:"
    INDEX 01 00:28:35
  TRACK 27 AUDIO
    TITLE "3:cjc044_5392"
    INDEX 01 00:29:09
  TRACK 28 AUDIO
    TITLE "0:"
    INDEX 01 00:30:05
  TRACK 29 AUDIO
    TITLE "4:cjc044_5393"
    INDEX 01 00:30:50
  TRACK 30 AUDIO
    TITLE "0:"
    INDEX 01 00:31:63
  TRACK 31 AUDIO
    TITLE "2:cjc044_5394"
    INDEX 01 00:33:36
  TRACK 32 AUDIO
    TITLE "0:"
    INDEX 01 00:34:51
  TRACK 33 AUDIO
    TITLE "3:cjc044_5395"
    INDEX 01 00:35:19
  TRACK 34 AUDIO
    TITLE "0:"
    INDEX 01 00:36:38
  TRACK 35 AUDIO
    TITLE "4:cjc044_5396"
    INDEX 01 00:37:12
  TRACK 36 AUDIO
    TITLE "0:"
    INDEX 01 00:38:26
  TRACK 37 AUDIO
    TITLE "2:cjc044_5397"
    INDEX 01 00:39:70
  TRACK 38 AUDIO
    TITLE "0:"
    INDEX 01 00:41:08
  TRACK 39 AUDIO
    TITLE "3:cjc044_5398"
    INDEX 01 00:41:51
  TRACK 40 AUDIO
    TITLE "0:"
    INDEX 01 00:42:63
  TRACK 41 AUDIO
    TITLE "4:cjc044_5399"
    INDEX 01 00:43:31
  TRACK 42 AUDIO
    TITLE "0:"
    INDEX 01 00:44:44
  TRACK 43 AUDIO
    TITLE "2:cjc044_5400"
    INDEX 01 00:46:15
  TRACK 44 AUDIO
    TITLE "0:"
    INDEX 01 00:47:54
  TRACK 45 AUDIO
    TITLE "3:cjc044_5401"
    INDEX 01 00:48:22
  TRACK 46 AUDIO
    TITLE "0:"
    INDEX 01 00:49:33
  TRACK 47 AUDIO
    TITLE "4:cjc044_5402"
    INDEX 01 00:50:05
  TRACK 48 AUDIO
    TITLE "0:"
    INDEX 01 00:51:44
  TRACK 49 AUDIO
    TITLE "2:cjc044_5403"
    INDEX 01 00:53:17
  TRACK 50 AUDIO
    TITLE "0:"
    INDEX 01 00:54:38
  TRACK 51 AUDIO
    TITLE "3:cjc044_5404"
    INDEX 01 00:55:14
  TRACK 52 AUDIO
    TITLE "0:"
    INDEX 01 00:56:29
  TRACK 53 AUDIO
    TITLE "4:cjc044_5405"
    INDEX 01 00:57:03
  TRACK 54 AUDIO
    TITLE "0:"
    INDEX 01 00:58:20
  TRACK 55 AUDIO
    TITLE "2:cjc044_5406"
    INDEX 01 01:00:04
  TRACK 56 AUDIO
    TITLE "0:"
    INDEX 01 01:01:21
  TRACK 57 AUDIO
    TITLE "3:cjc044_5407"
    INDEX 01 01:01:70
  TRACK 58 AUDIO
    TITLE "0:"
    INDEX 01 01:03:08
  TRACK 59 AUDIO
    TITLE "4:cjc044_5408"
    INDEX 01 01:03:57
  TRACK 60 AUDIO
    TITLE "0:"
    INDEX 01 01:04:74
  TRACK 61 AUDIO
    TITLE "2:cjc044_5409"
    INDEX 01 01:06:49
  TRACK 62 AUDIO
    TITLE "0:"
    INDEX 01 01:07:74
  TRACK 63 AUDIO
    TITLE "3:cjc044_5410"
    INDEX 01 01:08:46
  TRACK 64 AUDIO
    TITLE "0:"
    INDEX 01 01:10:31
  TRACK 65 AUDIO
    TITLE "4:cjc044_5411"
    INDEX 01 01:11:02
  TRACK 66 AUDIO
    TITLE "0:"
    INDEX 01 01:12:26
  TRACK 67 AUDIO
    TITLE "2:cjc044_5412"
    INDEX 01 01:14:04
  TRACK 68 AUDIO
    TITLE "0:"
    INDEX 01 01:15:21
  TRACK 69 AUDIO
    TITLE "3:cjc044_5413"
    INDEX 01 01:15:70
  TRACK 70 AUDIO
    TITLE "0:"
    INDEX 01 01:16:71
  TRACK 71 AUDIO
    TITLE "4:cjc044_5414"
    INDEX 01 01:17:41
  TRACK 72 AUDIO
    TITLE "0:"
    INDEX 01 01:18:60
  TRACK 73 AUDIO
    TITLE "2:cjc044_5415"
    INDEX 01 01:20:36
  TRACK 74 AUDIO
    TITLE "0:"
    INDEX 01 01:21:57
  TRACK 75 AUDIO
    TITLE "3:cjc044_5416"
    INDEX 01 01:22:31
  TRACK 76 AUDIO
    TITLE "0:"
    INDEX 01 01:23:42
  TRACK 77 AUDIO
    TITLE "4:cjc044_5417"
    INDEX 01 01:24:12
  TRACK 78 AUDIO
    TITLE "0:"
    INDEX 01 01:25:33
  TRACK 79 AUDIO
    TITLE "2:cjc044_5418"
    INDEX 01 01:27:08
  TRACK 80 AUDIO
    TITLE "0:"
    INDEX 01 01:28:51
  TRACK 81 AUDIO
    TITLE "3:cjc044_5419"
    INDEX 01 01:29:23
  TRACK 82 AUDIO
    TITLE "0:"
    INDEX 01 01:30:17
  TRACK 83 AUDIO
    TITLE "4:cjc044_5420"
    INDEX 01 01:30:66
  TRACK 84 AUDIO
    TITLE "0:"
    INDEX 01 01:32:29
  TRACK 85 AUDIO
    TITLE "2:cjc044_5421"
    INDEX 01 01:34:05
  TRACK 86 AUDIO
    TITLE "0:"
    INDEX 01 01:35:20
  TRACK 87 AUDIO
    TITLE "3:cjc044_5422"
    INDEX 01 01:35:69
  TRACK 88 AUDIO
    TITLE "0:"
    INDEX 01 01:37:48
  TRACK 89 AUDIO
    TITLE "4:cjc044_5423"
    INDEX 01 01:38:20
  TRACK 90 AUDIO
    TITLE "0:"
    INDEX 01 01:39:39
  TRACK 91 AUDIO
    TITLE "2:cjc044_5424"
    INDEX 01 01:41:14
  TRACK 92 AUDIO
    TITLE "0:"
    INDEX 01 01:42:24
  TRACK 93 AUDIO
    TITLE "3:cjc044_5425"
    INDEX 01 01:43:00
  TRACK 94 AUDIO
    TITLE "0:"
    INDEX 01 01:43:62
  TRACK 95 AUDIO
    TITLE "4:cjc044_5426"
    INDEX 01 01:44:36
  TRACK 96 AUDIO
    TITLE "0:"
    INDEX 01 01:45:51
  TRACK 97 AUDIO
    TITLE "2:cjc044_5427"
    INDEX 01 01:47:25
  TRACK 98 AUDIO
    TITLE "0:"
    INDEX 01 01:48:69
  TRACK 99 AUDIO
    TITLE "3:cjc044_5428"
    INDEX 01 01:49:37
  TRACK 100 AUDIO
    TITLE "0:"
    INDEX 01 01:50:41
  TRACK 101 AUDIO
    TITLE "4:cjc044_5429"
    INDEX 01 01:51:11
  TRACK 102 AUDIO
    TITLE "0:"
    INDEX 01 01:52:53
